<svg xmlns="http://www.w3.org/2000/svg" version="1.2" viewBox="37.99 51.08 327.05 324.38"><style>.a{fill:#541c1c}</style><path fill-rule="evenodd" class="a" d="m130.6 53.4c22.1 5.6 32.9 17.9 43 49.2 6.8 21.2 7.4 26.6 7.1 70.5-0.2 34.4-0.3 34.6-5.3 58.5-6.7 31.5-6.1 30.9-39.2 33.4-16 1.2-19.7 1.6-33.8 4-31 5.3-33.7 3.3-48.4-36.4-10.4-28.2-14.4-45.9-15.6-70.4-3.6-68.8 16.5-104.9 61.3-110.6 7.4-0.9 23.9 0.1 30.9 1.8zm234.2 104.7c-0.9 19.2-1.6 22.5-11.8 56.9-16.7 55.7-19.9 58.9-54.2 53.9-18.2-2.7-22.7-3.1-40.8-4.3-26.9-1.7-29.6-4.8-31.8-35.6-3.9-55.9-3.8-88.8 0.4-118.1 5.1-35.7 24.6-56.6 55.2-59.4 55.1-5 86.3 35 83 106.6zm-191 145.4c6.8 19.7 0.7 48.8-12.7 60.6-18.6 16.6-58.3 13.7-73.3-5.3-8.9-11.4-17.8-45.1-14.3-54.1 3.3-8.5 6.7-9.5 41.1-12.7 9.7-0.9 21.1-2 25.4-2.4 4.3-0.4 8.4-0.9 9.2-0.9 13.4-1.4 20.6 2.9 24.6 14.8zm74-14.9c1.3 0.1 4.2 0.3 6.4 0.4 8.2 0.5 52.6 4.6 56.8 5.4 9.6 1.6 14.1 4.8 16.2 11.6 3.5 11.2-1.5 34.6-10.4 48.2-19.2 29.4-71.8 28-86-2.3-3.5-7.6-5.6-22.3-5.1-37.3 0.6-18.5 4.5-24.6 16.5-25.8 1.8-0.2 4.3-0.2 5.6-0.2z"/></svg>