<svg xmlns="http://www.w3.org/2000/svg" version="1.2" viewBox="58.97 20.02 302.89 235.46"><style>.a{fill:#5c1c1c}</style><path fill-rule="evenodd" class="a" d="m132.2 20.3c17.2 1.3 21 3.8 51.6 33.7 20.9 20.4 22.1 21.4 27.6 21.4 5.3 0 6.6-1 25.3-19.4 34.8-34.3 39-36.5 67.7-35.9 20.9 0.5 28.4 3.5 42 17.1 13 12.9 15.1 18.5 15.4 42.1 0.5 26.9-1.3 31.2-21.6 52.4-18.6 19.4-119.7 119.8-122.4 121.6-4.6 3.1-8.9 2.9-13.8-0.6-4.4-3-119-117.5-128.3-128-7.6-8.8-14-19.4-15.6-26.3-1.5-6.3-1.5-27.9 0-33.9 2.3-9.7 12.7-25.2 21.8-32.5 9.9-8 17.2-10.7 31.5-11.8 3-0.2 15.2-0.1 18.8 0.1z"/></svg>