<svg xmlns="http://www.w3.org/2000/svg" version="1.2" viewBox="61.2 63.07 269.98 191.24"><style>.a{fill:#541c1c}</style><path fill-rule="evenodd" class="a" d="m301.7 64.9c16.9 4.9 26.4 15.3 28.3 30.8 1.5 13 1.6 109.3 0.1 128.7-1.6 20.1-7.6 27.8-23.1 29.3-10.2 1-143.4 0.7-152.6-0.4-10-1.1-13.6-3.5-40.6-26.4-10.7-9.1-13.6-11.5-20.9-16.8-27.3-20.1-31.7-27.1-31.7-50.9-0.1-17.1 3.2-22.9 21.9-38.7 8.4-7.1 10.5-8.8 17.6-14.2 3.6-2.7 9.1-7.1 12.2-9.8 16.7-14.1 28.6-22.4 40.4-28 9.4-4.5 11.7-4.7 50.7-5.2 56.9-0.6 92.1 0 97.7 1.6zm-203.2 110.4c7.9 11.9 23.7 18.8 34.2 15.1 9.5-3.3 21.5-19 21.6-28.2 0-4.1-1.6-8.7-5.8-16.4-6.1-10.9-9.1-13.8-16.5-15.7-24.5-6.2-47.4 24.6-33.5 45.2z"/></svg>